<?xml version="1.0" encoding="UTF-8"?>
<svg xmlns="http://www.w3.org/2000/svg" xmlns:xlink="http://www.w3.org/1999/xlink" width="24px" height="24px" viewBox="0 0 24 24" version="1.1">
<g id="surface1">
<path style=" stroke:none;fill-rule:nonzero;fill:rgb(100%,100%,100%);fill-opacity:1;" d="M 6.683594 4.621094 C 5.804688 4.9375 5.042969 6.128906 4.671875 7.753906 C 4.539062 8.347656 4.414062 9.347656 4.414062 9.832031 L 4.414062 10.167969 L 4.019531 10.792969 C 2.910156 12.519531 1.890625 14.320312 0.9375 16.238281 C 0.0859375 17.9375 0 18.144531 0 18.449219 C 0 18.582031 0.0351562 18.753906 0.0664062 18.828125 C 0.179688 19.03125 0.445312 19.242188 0.746094 19.355469 L 1.019531 19.460938 L 12.132812 19.457031 C 22.9375 19.457031 23.242188 19.453125 23.417969 19.367188 C 23.972656 19.078125 24.148438 18.484375 23.863281 17.867188 C 22.773438 15.492188 21.292969 12.800781 19.945312 10.722656 L 19.617188 10.21875 L 19.582031 9.644531 C 19.433594 7.4375 18.964844 6.085938 18.011719 5.097656 C 17.597656 4.671875 17.4375 4.578125 17.148438 4.574219 C 16.738281 4.574219 16.464844 4.761719 15.855469 5.464844 C 15.257812 6.152344 15.132812 6.316406 14.714844 6.9375 C 14.511719 7.238281 14.253906 7.589844 14.148438 7.714844 L 13.957031 7.945312 L 11.960938 7.945312 L 9.960938 7.941406 L 9.5625 7.320312 C 8.789062 6.128906 7.523438 4.683594 7.160156 4.585938 C 6.941406 4.519531 6.980469 4.515625 6.683594 4.621094 Z M 7.957031 11.375 C 8.109375 11.480469 8.148438 11.574219 8.203125 12.015625 C 8.269531 12.539062 8.332031 12.609375 8.671875 12.570312 C 8.980469 12.53125 9.226562 12.632812 9.367188 12.851562 C 9.640625 13.296875 9.171875 14.222656 8.503906 14.546875 C 8.265625 14.667969 8.179688 14.679688 7.773438 14.679688 C 7.386719 14.679688 7.28125 14.664062 7.101562 14.566406 C 6.570312 14.285156 6.242188 13.878906 6.105469 13.339844 C 6.039062 13.058594 6.035156 12.972656 6.089844 12.722656 C 6.160156 12.363281 6.285156 12.121094 6.511719 11.867188 C 6.910156 11.425781 7.664062 11.167969 7.957031 11.375 Z M 16.453125 11.417969 C 16.601562 11.542969 16.613281 11.582031 16.683594 12.160156 C 16.726562 12.511719 16.832031 12.617188 17.113281 12.570312 C 17.386719 12.535156 17.625 12.609375 17.785156 12.792969 C 18.042969 13.101562 17.890625 13.703125 17.429688 14.195312 C 17.058594 14.589844 16.828125 14.679688 16.246094 14.6875 C 15.804688 14.6875 15.75 14.679688 15.515625 14.546875 C 15.171875 14.355469 14.863281 14.035156 14.703125 13.710938 C 14.597656 13.492188 14.5625 13.355469 14.550781 13.042969 C 14.535156 12.679688 14.550781 12.613281 14.683594 12.339844 C 14.921875 11.824219 15.289062 11.5 15.792969 11.367188 C 16.132812 11.269531 16.292969 11.28125 16.453125 11.417969 Z M 16.453125 11.417969 "/>
</g>
</svg>
